<svg width="70" height="93" viewBox="0 0 70 93" fill="none" xmlns="http://www.w3.org/2000/svg">
<path d="M7.03234 14.616L7.02376 14.6111L7.03234 14.6062L7.03234 14.616L14.0273 19.4864L21.0239 24.3568L21.0274 24.3584L28.0206 29.2255L28.0292 29.2321L35.0172 34.0959L35.031 34.1057L42.0139 29.2452L42.0139 29.2189L42.0327 29.2321L49.0105 24.3748L49.0105 24.342L49.0345 24.3584L56.0072 19.5045L56.0072 19.4634L56.0381 19.4848L63.0038 14.6357L63.0038 14.5865L63.0399 14.6111L70.0005 9.76538L70.0005 0.0197181L63.0381 4.86544L63.0038 4.88844L56.0381 9.73909L56.0072 9.75881L49.0363 14.6111L49.0105 14.6292L42.0327 19.4864L42.0139 19.4979L35.031 24.3584L35.0172 24.3683L35.0172 24.3502L28.0292 19.4864L28.0206 19.4913L28.0206 19.4798L21.0274 14.6111L21.0239 14.6144L21.0239 14.6095L14.0273 9.73909L14.0256 9.73909L7.03234 4.87037L7.02376 4.86544L0.0356827 2.9805e-06L0.0356831 9.65858L7.03234 14.6538L7.03234 14.616Z" fill="url(#paint0_linear_177_9)"/>
<path d="M7.02376 73.09L7.03234 73.0851L7.03234 73.0966L14.0256 77.9653L14.0273 77.9636L14.0273 77.9669L21.0239 82.8356L21.0274 82.8373L28.0206 87.7044L28.0292 87.7109L35.0172 92.5747L35.031 92.5846L42.0139 87.7241L42.0139 87.6978L42.0328 87.7109L49.0105 82.8554L49.0105 82.8209L49.0363 82.8373L56.0072 77.985L56.0072 77.9439L56.0381 77.9653L63.0038 73.1163L63.0038 73.067L63.0381 73.0916L70.0005 68.2459L70.0005 58.4164L63.0038 63.41L63.0038 63.3673L56.0363 68.218L56.0072 68.2393L49.0363 73.09L49.0105 73.1081L42.0328 77.9653L42.0139 77.9768L35.031 82.8373L35.0172 82.8471L35.0172 82.8291L28.0292 77.9653L28.0206 77.9702L28.0206 77.9604L21.0274 73.0916L21.0239 73.0933L21.0239 73.09L14.0273 68.2196L14.0256 68.218L7.03234 63.3509L7.02376 63.3443L0.0356853 58.4805L0.0356857 68.2262L7.02376 73.09Z" fill="url(#paint1_linear_177_9)"/>
<path d="M7.03234 43.8448L7.03234 43.8563L14.0273 48.7234L14.0273 48.725L21.0239 53.5954L21.0274 53.5987L28.0206 58.4658L28.0292 58.4724L35.0172 63.3345L35.031 63.3444L42.0139 58.4855L42.0139 58.4576L42.0327 58.4724L49.0105 53.6151L49.0105 53.5806L49.0363 53.5987L56.0072 48.7464L56.0072 48.7037L56.0381 48.725L63.0038 43.876L63.0038 43.8267L63.0381 43.853L63.0038 43.876L63.0038 43.9598L70.0005 38.9662L70.0005 29.26L63.0381 34.1057L63.0038 34.1287L56.0363 38.9777L56.0072 38.9975L49.0345 43.8514L49.0105 43.8678L35.031 53.5987L35.0172 53.6069L35.0172 53.5888L28.0292 48.7234L28.0206 48.73L28.0206 48.7185L21.0274 43.8514L21.0239 43.853L21.0239 43.8498L14.0273 38.9794L14.0256 38.9777L7.03234 34.1107L7.02547 34.1057L7.0289 34.1008L0.035684 29.1088L0.0356844 38.9876L7.02547 43.8514L7.03234 43.8448Z" fill="url(#paint2_linear_177_9)"/>
<path opacity="0.3" d="M6.99658 34.104L6.99658 14.6538L-6.53267e-05 9.65851L-6.44542e-05 29.1104L6.99658 34.104Z" fill="#20A4F3"/>
<path opacity="0.3" d="M62.9694 63.4104L62.9694 43.9602L69.9661 38.9666L69.9661 58.4168L62.9694 63.4104Z" fill="#59F8E8"/>
<defs>
<linearGradient id="paint0_linear_177_9" x1="34.9149" y1="61.5559" x2="34.9149" y2="30.717" gradientUnits="userSpaceOnUse">
<stop stop-color="#59F8E8"/>
<stop offset="1" stop-color="#20A4F3"/>
</linearGradient>
<linearGradient id="paint1_linear_177_9" x1="34.9149" y1="61.5559" x2="34.9149" y2="30.717" gradientUnits="userSpaceOnUse">
<stop stop-color="#59F8E8"/>
<stop offset="1" stop-color="#20A4F3"/>
</linearGradient>
<linearGradient id="paint2_linear_177_9" x1="34.9149" y1="61.5559" x2="34.9149" y2="30.717" gradientUnits="userSpaceOnUse">
<stop stop-color="#59F8E8"/>
<stop offset="1" stop-color="#20A4F3"/>
</linearGradient>
</defs>
</svg>
