<svg width="32" height="25" viewBox="0 0 32 25" fill="none" xmlns="http://www.w3.org/2000/svg">
<path d="M27.124 2.30419C25.0698 1.35225 22.882 0.650818 20.5773 0.25C20.2934 0.751023 19.9594 1.43575 19.7423 1.98688C17.304 1.61946 14.8824 1.61946 12.4942 1.98688C12.2603 1.43575 11.9263 0.751023 11.6424 0.25C9.33772 0.650818 7.14992 1.35225 5.09573 2.30419C0.95394 8.55027 -0.165011 14.646 0.386114 20.6416C3.14174 22.6958 5.79716 23.9317 8.41918 24.75C9.0705 23.8649 9.63833 22.9129 10.1394 21.9276C9.18741 21.5769 8.28557 21.1259 7.43383 20.6082C7.66764 20.4412 7.88475 20.2575 8.10186 20.0905C13.3292 22.5288 18.9907 22.5288 24.1513 20.0905C24.3684 20.2742 24.5855 20.4412 24.8193 20.6082C23.9676 21.1259 23.049 21.5602 22.1138 21.9276C22.6148 22.9129 23.1826 23.8649 23.834 24.75C26.456 23.9317 29.1281 22.6958 31.867 20.6416C32.5184 13.6774 30.7481 7.64843 27.1574 2.30419H27.124ZM10.8408 16.9675C9.27091 16.9675 7.98496 15.5145 7.98496 13.7275C7.98496 11.9405 9.23751 10.4876 10.8408 10.4876C12.4441 10.4876 13.7133 11.9405 13.6966 13.7275C13.6966 15.4978 12.4441 16.9675 10.8408 16.9675ZM21.379 16.9675C19.8091 16.9675 18.5231 15.5145 18.5231 13.7275C18.5231 11.9405 19.7757 10.4876 21.379 10.4876C22.9822 10.4876 24.2515 11.9405 24.2348 13.7275C24.2348 15.4978 22.9822 16.9675 21.379 16.9675Z" fill="url(#paint0_linear_203_233)"/>
<defs>
<linearGradient id="paint0_linear_203_233" x1="31.9999" y1="12.7227" x2="0.255249" y2="12.7227" gradientUnits="userSpaceOnUse">
<stop stop-color="#59F8E8"/>
<stop offset="1" stop-color="#20A4F3"/>
</linearGradient>
</defs>
</svg>
