<svg width="27" height="25" viewBox="0 0 27 25" fill="none" xmlns="http://www.w3.org/2000/svg">
<path d="M6.15813 2.97343C6.15777 3.69537 5.87064 4.3876 5.35989 4.89783C4.84915 5.40806 4.15664 5.6945 3.4347 5.69414C2.71276 5.69378 2.02054 5.40665 1.5103 4.8959C1.00007 4.38516 0.713629 3.69265 0.71399 2.97071C0.714351 2.24877 1.00149 1.55655 1.51223 1.04631C2.02297 0.536082 2.71548 0.249639 3.43742 0.25C4.15936 0.250361 4.85159 0.537496 5.36182 1.04824C5.87205 1.55898 6.15849 2.25149 6.15813 2.97343ZM6.23979 7.70984H0.795652V24.75H6.23979V7.70984ZM14.8415 7.70984H9.42462V24.75H14.7871V15.808C14.7871 10.8266 21.2792 10.3639 21.2792 15.808V24.75H26.6553V13.957C26.6553 5.5594 17.0464 5.87244 14.7871 9.99638L14.8415 7.70984Z" fill="url(#paint0_linear_203_230)"/>
<defs>
<linearGradient id="paint0_linear_203_230" x1="26.6553" y1="12.7227" x2="0.713989" y2="12.7227" gradientUnits="userSpaceOnUse">
<stop stop-color="#59F8E8"/>
<stop offset="1" stop-color="#20A4F3"/>
</linearGradient>
</defs>
</svg>
